<svg width="219" height="38" viewBox="0 0 219 38" fill="none" xmlns="http://www.w3.org/2000/svg">
<path d="M30.0378 3.53959C32.3378 6.73959 31.6378 11.3396 28.3378 13.6396L12.8378 24.7396C9.63779 27.1396 5.13778 26.3396 2.73778 23.1396C0.437784 19.8396 1.1378 15.3396 4.4378 13.0396L19.9378 1.83959C23.1378 -0.460405 27.6378 0.239594 30.0378 3.53959Z" fill="#EA4435" stroke="#100F10" stroke-miterlimit="10"/>
<path d="M2.73778 14.6395C0.437784 17.9395 1.1378 22.4395 4.4378 24.7395L19.9378 35.9395C23.1378 38.2395 27.6378 37.5395 30.0378 34.2395C32.3378 31.0395 31.6378 26.4395 28.3378 24.1395L12.8378 13.0395C9.63779 10.6395 5.13778 11.4395 2.73778 14.6395Z" fill="#537CBE" stroke="#100F10" stroke-miterlimit="10"/>
<path d="M67.4378 14.6395C69.7378 17.9395 69.0378 22.4395 65.7378 24.7395L50.2378 35.9395C47.0378 38.2395 42.5378 37.5395 40.1378 34.2395C37.8378 31.0395 38.5378 26.4395 41.8378 24.1395L57.3378 13.0395C60.5378 10.6395 65.0378 11.4395 67.4378 14.6395Z" fill="#F8AB19" stroke="#100F10" stroke-miterlimit="10"/>
<path d="M40.1378 3.53959C37.8378 6.73959 38.5378 11.3396 41.8378 13.6396L57.3378 24.7396C60.5378 27.1396 65.0378 26.3396 67.4378 23.1396C69.7378 19.8396 69.0378 15.3396 65.7378 13.0396L50.2378 1.83959C47.0378 -0.460405 42.5378 0.239594 40.1378 3.53959Z" fill="#32A852" stroke="#100F10" stroke-miterlimit="10"/>
<path d="M95.1037 25.7096C93.757 25.7096 92.517 25.383 91.3837 24.7296C90.2504 24.0763 89.3504 23.1763 88.6837 22.0296C88.017 20.883 87.6837 19.6163 87.6837 18.2296C87.6837 16.843 88.017 15.5763 88.6837 14.4296C89.3504 13.283 90.2504 12.383 91.3837 11.7296C92.517 11.0763 93.757 10.7496 95.1037 10.7496C96.157 10.7496 97.1437 10.9363 98.0637 11.3096C98.997 11.683 99.7637 12.2096 100.364 12.8896L99.1437 14.1096C98.6904 13.5496 98.1104 13.123 97.4037 12.8296C96.697 12.523 95.937 12.3696 95.1237 12.3696C94.1104 12.3696 93.1637 12.6163 92.2837 13.1096C91.417 13.5896 90.717 14.2763 90.1837 15.1696C89.6637 16.0496 89.4037 17.0696 89.4037 18.2296C89.4037 19.3896 89.6637 20.4163 90.1837 21.3096C90.717 22.1896 91.4237 22.8763 92.3037 23.3696C93.1837 23.8496 94.1237 24.0896 95.1237 24.0896C96.0837 24.0896 96.8837 23.943 97.5237 23.6496C98.177 23.343 98.737 22.943 99.2037 22.4496C99.5504 22.0763 99.8304 21.6296 100.044 21.1096C100.257 20.5763 100.39 19.9896 100.444 19.3496H95.1437V17.7696H102.024C102.09 18.143 102.124 18.4896 102.124 18.8096C102.124 19.6896 101.984 20.5496 101.704 21.3896C101.424 22.2163 100.977 22.943 100.364 23.5696C99.0437 24.9963 97.2904 25.7096 95.1037 25.7096ZM104.653 11.0696H108.973C110.44 11.0696 111.72 11.3763 112.813 11.9896C113.907 12.5896 114.747 13.4296 115.333 14.5096C115.92 15.5896 116.213 16.8296 116.213 18.2296C116.213 19.6296 115.92 20.8696 115.333 21.9496C114.747 23.0296 113.907 23.8763 112.813 24.4896C111.72 25.0896 110.44 25.3896 108.973 25.3896H104.653V11.0696ZM108.973 23.7696C110.667 23.7696 112.007 23.283 112.993 22.3096C113.993 21.3363 114.493 19.9763 114.493 18.2296C114.493 16.483 113.993 15.123 112.993 14.1496C112.007 13.1763 110.667 12.6896 108.973 12.6896H106.333V23.7696H108.973ZM122.716 25.7096C121.596 25.7096 120.569 25.3696 119.636 24.6896C118.702 24.0096 118.062 23.0563 117.716 21.8296L119.336 21.1696C119.562 22.023 119.982 22.723 120.596 23.2696C121.209 23.8163 121.929 24.0896 122.756 24.0896C123.582 24.0896 124.282 23.8696 124.856 23.4296C125.429 22.9763 125.716 22.363 125.716 21.5896C125.716 20.923 125.469 20.3763 124.976 19.9496C124.496 19.5096 123.702 19.103 122.596 18.7296L121.696 18.4096C120.682 18.0496 119.856 17.5763 119.216 16.9896C118.576 16.403 118.256 15.5896 118.256 14.5496C118.256 13.8696 118.442 13.243 118.816 12.6696C119.189 12.083 119.709 11.6163 120.376 11.2696C121.042 10.923 121.789 10.7496 122.616 10.7496C123.442 10.7496 124.162 10.903 124.776 11.2096C125.389 11.5163 125.876 11.8896 126.236 12.3296C126.609 12.7696 126.869 13.203 127.016 13.6296L125.416 14.3096C125.282 13.8163 124.976 13.3696 124.496 12.9696C124.029 12.5696 123.409 12.3696 122.636 12.3696C121.902 12.3696 121.276 12.5763 120.756 12.9896C120.236 13.403 119.976 13.923 119.976 14.5496C119.976 15.1096 120.196 15.5696 120.636 15.9296C121.076 16.2763 121.742 16.603 122.636 16.9096L123.576 17.2296C124.789 17.6696 125.736 18.223 126.416 18.8896C127.096 19.543 127.436 20.4363 127.436 21.5696C127.436 22.4896 127.196 23.263 126.716 23.8896C126.249 24.5163 125.656 24.9763 124.936 25.2696C124.216 25.563 123.476 25.7096 122.716 25.7096ZM136.647 25.7096C135.26 25.7096 134 25.383 132.867 24.7296C131.733 24.0763 130.84 23.183 130.187 22.0496C129.547 20.903 129.227 19.6296 129.227 18.2296C129.227 16.8296 129.547 15.563 130.187 14.4296C130.84 13.283 131.733 12.383 132.867 11.7296C134 11.0763 135.26 10.7496 136.647 10.7496C137.713 10.7496 138.687 10.9563 139.567 11.3696C140.46 11.7696 141.233 12.343 141.887 13.0896L140.667 14.2696C140.12 13.6163 139.52 13.1363 138.867 12.8296C138.227 12.523 137.487 12.3696 136.647 12.3696C135.607 12.3696 134.653 12.6163 133.787 13.1096C132.92 13.5896 132.227 14.2763 131.707 15.1696C131.2 16.0496 130.947 17.0696 130.947 18.2296C130.947 19.3896 131.2 20.4163 131.707 21.3096C132.227 22.1896 132.92 22.8763 133.787 23.3696C134.653 23.8496 135.607 24.0896 136.647 24.0896C138.38 24.0896 139.853 23.3763 141.067 21.9496L142.307 23.1496C141.64 23.9363 140.82 24.563 139.847 25.0296C138.873 25.483 137.807 25.7096 136.647 25.7096ZM152.914 11.0696H154.834L160.274 25.3896H158.414L156.974 21.4496H150.794L149.354 25.3896H147.494L152.914 11.0696ZM156.394 19.8496L154.494 14.6896L153.914 13.1496H153.834L153.274 14.6896L151.374 19.8496H156.394ZM161.833 11.0696H163.533V25.3896H161.833V11.0696ZM166.052 11.0696H167.752V15.2896L167.672 16.6896H167.752C168.032 16.1696 168.472 15.7363 169.072 15.3896C169.685 15.043 170.352 14.8696 171.072 14.8696C172.312 14.8696 173.258 15.2363 173.912 15.9696C174.565 16.6896 174.892 17.6496 174.892 18.8496V25.3896H173.192V19.1096C173.192 18.1896 172.958 17.5096 172.492 17.0696C172.025 16.6296 171.418 16.4096 170.672 16.4096C170.138 16.4096 169.645 16.5696 169.192 16.8896C168.752 17.2096 168.398 17.623 168.132 18.1296C167.878 18.6363 167.752 19.163 167.752 19.7096V25.3896H166.052V11.0696ZM178.341 13.3096C178.007 13.3096 177.721 13.1896 177.481 12.9496C177.241 12.7096 177.121 12.423 177.121 12.0896C177.121 11.7563 177.241 11.4763 177.481 11.2496C177.721 11.0096 178.007 10.8896 178.341 10.8896C178.674 10.8896 178.961 11.0096 179.201 11.2496C179.441 11.4763 179.561 11.7563 179.561 12.0896C179.561 12.423 179.441 12.7096 179.201 12.9496C178.974 13.1896 178.687 13.3096 178.341 13.3096ZM177.501 15.1896H179.181V25.3896H177.501V15.1896ZM181.852 11.0696H183.552V20.0696L188.352 15.1896H190.512V15.2696L186.512 19.3096L190.612 25.3096V25.3896H188.592L185.312 20.4896L183.552 22.2496V25.3896H181.852V11.0696ZM191.95 15.1896H193.57V16.6896H193.65C193.943 16.1696 194.383 15.7363 194.97 15.3896C195.557 15.043 196.177 14.8696 196.83 14.8696C197.577 14.8696 198.223 15.0496 198.77 15.4096C199.33 15.7696 199.73 16.2496 199.97 16.8496C200.33 16.2496 200.803 15.7696 201.39 15.4096C201.99 15.0496 202.683 14.8696 203.47 14.8696C204.643 14.8696 205.523 15.2296 206.11 15.9496C206.71 16.6563 207.01 17.623 207.01 18.8496V25.3896H205.33V19.1096C205.33 18.163 205.137 17.4763 204.75 17.0496C204.363 16.623 203.79 16.4096 203.03 16.4096C202.523 16.4096 202.063 16.5563 201.65 16.8496C201.237 17.143 200.91 17.5363 200.67 18.0296C200.443 18.523 200.33 19.0563 200.33 19.6296V25.3896H198.63V19.1296C198.63 18.1696 198.437 17.4763 198.05 17.0496C197.663 16.623 197.097 16.4096 196.35 16.4096C195.843 16.4096 195.383 16.563 194.97 16.8696C194.557 17.163 194.23 17.563 193.99 18.0696C193.763 18.563 193.65 19.0963 193.65 19.6696V25.3896H191.95V15.1896ZM212.612 25.7096C211.866 25.7096 211.199 25.563 210.612 25.2696C210.026 24.9763 209.572 24.5763 209.252 24.0696C208.932 23.5496 208.772 22.963 208.772 22.3096C208.772 21.2296 209.179 20.3896 209.992 19.7896C210.806 19.1763 211.832 18.8696 213.072 18.8696C213.686 18.8696 214.252 18.9363 214.772 19.0696C215.306 19.203 215.712 19.3563 215.992 19.5296V18.9096C215.992 18.1496 215.726 17.543 215.192 17.0896C214.659 16.623 213.986 16.3896 213.172 16.3896C212.599 16.3896 212.072 16.5163 211.592 16.7696C211.112 17.0096 210.732 17.3496 210.452 17.7896L209.172 16.8296C209.572 16.2163 210.119 15.7363 210.812 15.3896C211.519 15.043 212.299 14.8696 213.152 14.8696C214.539 14.8696 215.626 15.2363 216.412 15.9696C217.212 16.6896 217.612 17.6763 217.612 18.9296V25.3896H215.992V23.9296H215.912C215.619 24.423 215.179 24.843 214.592 25.1896C214.006 25.5363 213.346 25.7096 212.612 25.7096ZM212.772 24.2096C213.346 24.2096 213.879 24.063 214.372 23.7696C214.866 23.4763 215.259 23.083 215.552 22.5896C215.846 22.0963 215.992 21.5563 215.992 20.9696C215.672 20.7563 215.279 20.583 214.812 20.4496C214.346 20.3163 213.852 20.2496 213.332 20.2496C212.399 20.2496 211.692 20.443 211.212 20.8296C210.746 21.2163 210.512 21.7163 210.512 22.3296C210.512 22.8896 210.726 23.343 211.152 23.6896C211.579 24.0363 212.119 24.2096 212.772 24.2096Z" fill="#1B1C1C"/>
</svg>
