<svg width="216" height="38" viewBox="0 0 216 38" fill="none" xmlns="http://www.w3.org/2000/svg">
<path d="M29.2541 3.53959C31.5541 6.73959 30.8541 11.3396 27.5541 13.6396L12.0541 24.7396C8.85407 27.1396 4.35406 26.3396 1.95406 23.1396C-0.345938 19.8396 0.354074 15.3396 3.65407 13.0396L19.1541 1.83959C22.3541 -0.460405 26.8541 0.239594 29.2541 3.53959Z" fill="#EA4435" stroke="#100F10" stroke-miterlimit="10"/>
<path d="M1.95406 14.6395C-0.345938 17.9395 0.354074 22.4395 3.65407 24.7395L19.1541 35.9395C22.3541 38.2395 26.8541 37.5395 29.2541 34.2395C31.5541 31.0395 30.8541 26.4395 27.5541 24.1395L12.0541 13.0395C8.85407 10.6395 4.35406 11.4395 1.95406 14.6395Z" fill="#537CBE" stroke="#100F10" stroke-miterlimit="10"/>
<path d="M66.6541 14.6395C68.9541 17.9395 68.2541 22.4395 64.9541 24.7395L49.4541 35.9395C46.2541 38.2395 41.7541 37.5395 39.3541 34.2395C37.0541 31.0395 37.7541 26.4395 41.0541 24.1395L56.5541 13.0395C59.7541 10.6395 64.2541 11.4395 66.6541 14.6395Z" fill="#F8AB19" stroke="#100F10" stroke-miterlimit="10"/>
<path d="M39.3541 3.53959C37.0541 6.73959 37.7541 11.3396 41.0541 13.6396L56.5541 24.7396C59.7541 27.1396 64.2541 26.3396 66.6541 23.1396C68.9541 19.8396 68.2541 15.3396 64.9541 13.0396L49.4541 1.83959C46.2541 -0.460405 41.7541 0.239594 39.3541 3.53959Z" fill="#32A852" stroke="#100F10" stroke-miterlimit="10"/>
<path d="M94.32 25.7096C92.9733 25.7096 91.7333 25.383 90.6 24.7296C89.4667 24.0763 88.5667 23.1763 87.9 22.0296C87.2333 20.883 86.9 19.6163 86.9 18.2296C86.9 16.843 87.2333 15.5763 87.9 14.4296C88.5667 13.283 89.4667 12.383 90.6 11.7296C91.7333 11.0763 92.9733 10.7496 94.32 10.7496C95.3733 10.7496 96.36 10.9363 97.28 11.3096C98.2133 11.683 98.98 12.2096 99.58 12.8896L98.36 14.1096C97.9067 13.5496 97.3267 13.123 96.62 12.8296C95.9133 12.523 95.1533 12.3696 94.34 12.3696C93.3267 12.3696 92.38 12.6163 91.5 13.1096C90.6333 13.5896 89.9333 14.2763 89.4 15.1696C88.88 16.0496 88.62 17.0696 88.62 18.2296C88.62 19.3896 88.88 20.4163 89.4 21.3096C89.9333 22.1896 90.64 22.8763 91.52 23.3696C92.4 23.8496 93.34 24.0896 94.34 24.0896C95.3 24.0896 96.1 23.943 96.74 23.6496C97.3933 23.343 97.9533 22.943 98.42 22.4496C98.7667 22.0763 99.0467 21.6296 99.26 21.1096C99.4733 20.5763 99.6067 19.9896 99.66 19.3496H94.36V17.7696H101.24C101.307 18.143 101.34 18.4896 101.34 18.8096C101.34 19.6896 101.2 20.5496 100.92 21.3896C100.64 22.2163 100.193 22.943 99.58 23.5696C98.26 24.9963 96.5067 25.7096 94.32 25.7096ZM103.87 11.0696H108.19C109.656 11.0696 110.936 11.3763 112.03 11.9896C113.123 12.5896 113.963 13.4296 114.55 14.5096C115.136 15.5896 115.43 16.8296 115.43 18.2296C115.43 19.6296 115.136 20.8696 114.55 21.9496C113.963 23.0296 113.123 23.8763 112.03 24.4896C110.936 25.0896 109.656 25.3896 108.19 25.3896H103.87V11.0696ZM108.19 23.7696C109.883 23.7696 111.223 23.283 112.21 22.3096C113.21 21.3363 113.71 19.9763 113.71 18.2296C113.71 16.483 113.21 15.123 112.21 14.1496C111.223 13.1763 109.883 12.6896 108.19 12.6896H105.55V23.7696H108.19ZM121.932 25.7096C120.812 25.7096 119.785 25.3696 118.852 24.6896C117.919 24.0096 117.279 23.0563 116.932 21.8296L118.552 21.1696C118.779 22.023 119.199 22.723 119.812 23.2696C120.425 23.8163 121.145 24.0896 121.972 24.0896C122.799 24.0896 123.499 23.8696 124.072 23.4296C124.645 22.9763 124.932 22.363 124.932 21.5896C124.932 20.923 124.685 20.3763 124.192 19.9496C123.712 19.5096 122.919 19.103 121.812 18.7296L120.912 18.4096C119.899 18.0496 119.072 17.5763 118.432 16.9896C117.792 16.403 117.472 15.5896 117.472 14.5496C117.472 13.8696 117.659 13.243 118.032 12.6696C118.405 12.083 118.925 11.6163 119.592 11.2696C120.259 10.923 121.005 10.7496 121.832 10.7496C122.659 10.7496 123.379 10.903 123.992 11.2096C124.605 11.5163 125.092 11.8896 125.452 12.3296C125.825 12.7696 126.085 13.203 126.232 13.6296L124.632 14.3096C124.499 13.8163 124.192 13.3696 123.712 12.9696C123.245 12.5696 122.625 12.3696 121.852 12.3696C121.119 12.3696 120.492 12.5763 119.972 12.9896C119.452 13.403 119.192 13.923 119.192 14.5496C119.192 15.1096 119.412 15.5696 119.852 15.9296C120.292 16.2763 120.959 16.603 121.852 16.9096L122.792 17.2296C124.005 17.6696 124.952 18.223 125.632 18.8896C126.312 19.543 126.652 20.4363 126.652 21.5696C126.652 22.4896 126.412 23.263 125.932 23.8896C125.465 24.5163 124.872 24.9763 124.152 25.2696C123.432 25.563 122.692 25.7096 121.932 25.7096ZM135.863 25.7096C134.476 25.7096 133.216 25.383 132.083 24.7296C130.95 24.0763 130.056 23.183 129.403 22.0496C128.763 20.903 128.443 19.6296 128.443 18.2296C128.443 16.8296 128.763 15.563 129.403 14.4296C130.056 13.283 130.95 12.383 132.083 11.7296C133.216 11.0763 134.476 10.7496 135.863 10.7496C136.93 10.7496 137.903 10.9563 138.783 11.3696C139.676 11.7696 140.45 12.343 141.103 13.0896L139.883 14.2696C139.336 13.6163 138.736 13.1363 138.083 12.8296C137.443 12.523 136.703 12.3696 135.863 12.3696C134.823 12.3696 133.87 12.6163 133.003 13.1096C132.136 13.5896 131.443 14.2763 130.923 15.1696C130.416 16.0496 130.163 17.0696 130.163 18.2296C130.163 19.3896 130.416 20.4163 130.923 21.3096C131.443 22.1896 132.136 22.8763 133.003 23.3696C133.87 23.8496 134.823 24.0896 135.863 24.0896C137.596 24.0896 139.07 23.3763 140.283 21.9496L141.523 23.1496C140.856 23.9363 140.036 24.563 139.063 25.0296C138.09 25.483 137.023 25.7096 135.863 25.7096ZM148.616 11.0696H150.296V18.6096H150.376L156.836 11.0696H159.016V11.1496L153.716 17.2696L159.396 25.3096V25.3896H157.336L152.576 18.5696L150.296 21.1896V25.3896H148.616V11.0696ZM159.856 11.0696H161.736L164.336 21.5896L164.576 22.5696H164.656L164.956 21.5896L168.156 11.0696H169.916L172.976 21.5896L173.276 22.5696H173.356L176.176 11.0696H178.056L174.196 25.3896H172.436L169.396 15.0296L169.076 13.9096H168.996L168.656 15.0296L165.496 25.3896H163.736L159.856 11.0696ZM183.224 11.0696H185.144L190.584 25.3896H188.724L187.284 21.4496H181.104L179.664 25.3896H177.804L183.224 11.0696ZM186.704 19.8496L184.804 14.6896L184.224 13.1496H184.144L183.584 14.6896L181.684 19.8496H186.704ZM196.483 25.7096C195.363 25.7096 194.336 25.3696 193.403 24.6896C192.469 24.0096 191.829 23.0563 191.483 21.8296L193.103 21.1696C193.329 22.023 193.749 22.723 194.363 23.2696C194.976 23.8163 195.696 24.0896 196.523 24.0896C197.349 24.0896 198.049 23.8696 198.623 23.4296C199.196 22.9763 199.483 22.363 199.483 21.5896C199.483 20.923 199.236 20.3763 198.743 19.9496C198.263 19.5096 197.469 19.103 196.363 18.7296L195.463 18.4096C194.449 18.0496 193.623 17.5763 192.983 16.9896C192.343 16.403 192.023 15.5896 192.023 14.5496C192.023 13.8696 192.209 13.243 192.583 12.6696C192.956 12.083 193.476 11.6163 194.143 11.2696C194.809 10.923 195.556 10.7496 196.383 10.7496C197.209 10.7496 197.929 10.903 198.543 11.2096C199.156 11.5163 199.643 11.8896 200.003 12.3296C200.376 12.7696 200.636 13.203 200.783 13.6296L199.183 14.3096C199.049 13.8163 198.743 13.3696 198.263 12.9696C197.796 12.5696 197.176 12.3696 196.403 12.3696C195.669 12.3696 195.043 12.5763 194.523 12.9896C194.003 13.403 193.743 13.923 193.743 14.5496C193.743 15.1096 193.963 15.5696 194.403 15.9296C194.843 16.2763 195.509 16.603 196.403 16.9096L197.343 17.2296C198.556 17.6696 199.503 18.223 200.183 18.8896C200.863 19.543 201.203 20.4363 201.203 21.5696C201.203 22.4896 200.963 23.263 200.483 23.8896C200.016 24.5163 199.423 24.9763 198.703 25.2696C197.983 25.563 197.243 25.7096 196.483 25.7096ZM208.694 25.7096C207.667 25.7096 206.754 25.4763 205.954 25.0096C205.154 24.5296 204.534 23.8696 204.094 23.0296C203.654 22.1763 203.434 21.1963 203.434 20.0896V11.0696H205.134V20.1696C205.134 21.3296 205.44 22.2763 206.054 23.0096C206.667 23.7296 207.547 24.0896 208.694 24.0896C209.84 24.0896 210.72 23.7296 211.334 23.0096C211.96 22.2763 212.274 21.3296 212.274 20.1696V11.0696H213.954V20.0896C213.954 21.1963 213.74 22.1763 213.314 23.0296C212.9 23.883 212.294 24.543 211.494 25.0096C210.707 25.4763 209.774 25.7096 208.694 25.7096Z" fill="#1B1C1C"/>
</svg>
