<svg width="246" height="38" viewBox="0 0 246 38" fill="none" xmlns="http://www.w3.org/2000/svg">
<path d="M29.6459 3.53959C31.9459 6.73959 31.2459 11.3396 27.9459 13.6396L12.4459 24.7396C9.24594 27.1396 4.74594 26.3396 2.34594 23.1396C0.045938 19.8396 0.74595 15.3396 4.04595 13.0396L19.5459 1.83959C22.746 -0.460405 27.2459 0.239594 29.6459 3.53959Z" fill="#EA4435" stroke="#100F10" stroke-miterlimit="10"/>
<path d="M2.34594 14.6395C0.045938 17.9395 0.74595 22.4395 4.04595 24.7395L19.5459 35.9395C22.746 38.2395 27.2459 37.5395 29.6459 34.2395C31.9459 31.0395 31.2459 26.4395 27.9459 24.1395L12.4459 13.0395C9.24594 10.6395 4.74594 11.4395 2.34594 14.6395Z" fill="#537CBE" stroke="#100F10" stroke-miterlimit="10"/>
<path d="M67.046 14.6395C69.346 17.9395 68.646 22.4395 65.346 24.7395L49.846 35.9395C46.646 38.2395 42.146 37.5395 39.746 34.2395C37.446 31.0395 38.146 26.4395 41.446 24.1395L56.946 13.0395C60.146 10.6395 64.646 11.4395 67.046 14.6395Z" fill="#F8AB19" stroke="#100F10" stroke-miterlimit="10"/>
<path d="M39.746 3.53959C37.446 6.73959 38.146 11.3396 41.446 13.6396L56.946 24.7396C60.146 27.1396 64.646 26.3396 67.046 23.1396C69.346 19.8396 68.646 15.3396 65.346 13.0396L49.846 1.83959C46.646 -0.460405 42.146 0.239594 39.746 3.53959Z" fill="#32A852" stroke="#100F10" stroke-miterlimit="10"/>
<path d="M94.7118 25.7096C93.3652 25.7096 92.1252 25.383 90.9918 24.7296C89.8585 24.0763 88.9585 23.1763 88.2918 22.0296C87.6252 20.883 87.2918 19.6163 87.2918 18.2296C87.2918 16.843 87.6252 15.5763 88.2918 14.4296C88.9585 13.283 89.8585 12.383 90.9918 11.7296C92.1252 11.0763 93.3652 10.7496 94.7118 10.7496C95.7652 10.7496 96.7518 10.9363 97.6718 11.3096C98.6052 11.683 99.3718 12.2096 99.9718 12.8896L98.7518 14.1096C98.2985 13.5496 97.7185 13.123 97.0118 12.8296C96.3052 12.523 95.5452 12.3696 94.7318 12.3696C93.7185 12.3696 92.7718 12.6163 91.8918 13.1096C91.0252 13.5896 90.3252 14.2763 89.7918 15.1696C89.2718 16.0496 89.0118 17.0696 89.0118 18.2296C89.0118 19.3896 89.2718 20.4163 89.7918 21.3096C90.3252 22.1896 91.0318 22.8763 91.9118 23.3696C92.7918 23.8496 93.7318 24.0896 94.7318 24.0896C95.6918 24.0896 96.4918 23.943 97.1318 23.6496C97.7852 23.343 98.3452 22.943 98.8118 22.4496C99.1585 22.0763 99.4385 21.6296 99.6518 21.1096C99.8652 20.5763 99.9985 19.9896 100.052 19.3496H94.7518V17.7696H101.632C101.699 18.143 101.732 18.4896 101.732 18.8096C101.732 19.6896 101.592 20.5496 101.312 21.3896C101.032 22.2163 100.585 22.943 99.9718 23.5696C98.6518 24.9963 96.8985 25.7096 94.7118 25.7096ZM104.261 11.0696H108.581C110.048 11.0696 111.328 11.3763 112.421 11.9896C113.515 12.5896 114.355 13.4296 114.941 14.5096C115.528 15.5896 115.821 16.8296 115.821 18.2296C115.821 19.6296 115.528 20.8696 114.941 21.9496C114.355 23.0296 113.515 23.8763 112.421 24.4896C111.328 25.0896 110.048 25.3896 108.581 25.3896H104.261V11.0696ZM108.581 23.7696C110.275 23.7696 111.615 23.283 112.601 22.3096C113.601 21.3363 114.101 19.9763 114.101 18.2296C114.101 16.483 113.601 15.123 112.601 14.1496C111.615 13.1763 110.275 12.6896 108.581 12.6896H105.941V23.7696H108.581ZM122.324 25.7096C121.204 25.7096 120.177 25.3696 119.244 24.6896C118.311 24.0096 117.671 23.0563 117.324 21.8296L118.944 21.1696C119.171 22.023 119.591 22.723 120.204 23.2696C120.817 23.8163 121.537 24.0896 122.364 24.0896C123.191 24.0896 123.891 23.8696 124.464 23.4296C125.037 22.9763 125.324 22.363 125.324 21.5896C125.324 20.923 125.077 20.3763 124.584 19.9496C124.104 19.5096 123.311 19.103 122.204 18.7296L121.304 18.4096C120.291 18.0496 119.464 17.5763 118.824 16.9896C118.184 16.403 117.864 15.5896 117.864 14.5496C117.864 13.8696 118.051 13.243 118.424 12.6696C118.797 12.083 119.317 11.6163 119.984 11.2696C120.651 10.923 121.397 10.7496 122.224 10.7496C123.051 10.7496 123.771 10.903 124.384 11.2096C124.997 11.5163 125.484 11.8896 125.844 12.3296C126.217 12.7696 126.477 13.203 126.624 13.6296L125.024 14.3096C124.891 13.8163 124.584 13.3696 124.104 12.9696C123.637 12.5696 123.017 12.3696 122.244 12.3696C121.511 12.3696 120.884 12.5763 120.364 12.9896C119.844 13.403 119.584 13.923 119.584 14.5496C119.584 15.1096 119.804 15.5696 120.244 15.9296C120.684 16.2763 121.351 16.603 122.244 16.9096L123.184 17.2296C124.397 17.6696 125.344 18.223 126.024 18.8896C126.704 19.543 127.044 20.4363 127.044 21.5696C127.044 22.4896 126.804 23.263 126.324 23.8896C125.857 24.5163 125.264 24.9763 124.544 25.2696C123.824 25.563 123.084 25.7096 122.324 25.7096ZM136.255 25.7096C134.868 25.7096 133.608 25.383 132.475 24.7296C131.341 24.0763 130.448 23.183 129.795 22.0496C129.155 20.903 128.835 19.6296 128.835 18.2296C128.835 16.8296 129.155 15.563 129.795 14.4296C130.448 13.283 131.341 12.383 132.475 11.7296C133.608 11.0763 134.868 10.7496 136.255 10.7496C137.321 10.7496 138.295 10.9563 139.175 11.3696C140.068 11.7696 140.841 12.343 141.495 13.0896L140.275 14.2696C139.728 13.6163 139.128 13.1363 138.475 12.8296C137.835 12.523 137.095 12.3696 136.255 12.3696C135.215 12.3696 134.261 12.6163 133.395 13.1096C132.528 13.5896 131.835 14.2763 131.315 15.1696C130.808 16.0496 130.555 17.0696 130.555 18.2296C130.555 19.3896 130.808 20.4163 131.315 21.3096C131.835 22.1896 132.528 22.8763 133.395 23.3696C134.261 23.8496 135.215 24.0896 136.255 24.0896C137.988 24.0896 139.461 23.3763 140.675 21.9496L141.915 23.1496C141.248 23.9363 140.428 24.563 139.455 25.0296C138.481 25.483 137.415 25.7096 136.255 25.7096ZM149.007 11.0696H150.687V18.6096H150.767L157.227 11.0696H159.407V11.1496L154.107 17.2696L159.787 25.3096V25.3896H157.727L152.967 18.5696L150.687 21.1896V25.3896H149.007V11.0696ZM159.442 15.1896H161.182L163.622 23.2496H163.642L166.202 15.1896H167.962L170.542 23.2296H170.562L172.982 15.1896H174.702L171.402 25.3896H169.682L167.042 17.2496L164.422 25.3896H162.722L159.442 15.1896ZM179.174 25.7096C178.427 25.7096 177.76 25.563 177.174 25.2696C176.587 24.9763 176.134 24.5763 175.814 24.0696C175.494 23.5496 175.334 22.963 175.334 22.3096C175.334 21.2296 175.74 20.3896 176.554 19.7896C177.367 19.1763 178.394 18.8696 179.634 18.8696C180.247 18.8696 180.814 18.9363 181.334 19.0696C181.867 19.203 182.274 19.3563 182.554 19.5296V18.9096C182.554 18.1496 182.287 17.543 181.754 17.0896C181.22 16.623 180.547 16.3896 179.734 16.3896C179.16 16.3896 178.634 16.5163 178.154 16.7696C177.674 17.0096 177.294 17.3496 177.014 17.7896L175.734 16.8296C176.134 16.2163 176.68 15.7363 177.374 15.3896C178.08 15.043 178.86 14.8696 179.714 14.8696C181.1 14.8696 182.187 15.2363 182.974 15.9696C183.774 16.6896 184.174 17.6763 184.174 18.9296V25.3896H182.554V23.9296H182.474C182.18 24.423 181.74 24.843 181.154 25.1896C180.567 25.5363 179.907 25.7096 179.174 25.7096ZM179.334 24.2096C179.907 24.2096 180.44 24.063 180.934 23.7696C181.427 23.4763 181.82 23.083 182.114 22.5896C182.407 22.0963 182.554 21.5563 182.554 20.9696C182.234 20.7563 181.84 20.583 181.374 20.4496C180.907 20.3163 180.414 20.2496 179.894 20.2496C178.96 20.2496 178.254 20.443 177.774 20.8296C177.307 21.2163 177.074 21.7163 177.074 22.3296C177.074 22.8896 177.287 23.343 177.714 23.6896C178.14 24.0363 178.68 24.2096 179.334 24.2096ZM186.539 15.1896H188.159V16.8296H188.239C188.439 16.2696 188.825 15.8096 189.399 15.4496C189.972 15.0763 190.572 14.8896 191.199 14.8896C191.665 14.8896 192.065 14.9563 192.399 15.0896V16.9296C191.972 16.7163 191.492 16.6096 190.959 16.6096C190.465 16.6096 190.012 16.7496 189.599 17.0296C189.185 17.3096 188.852 17.6896 188.599 18.1696C188.359 18.6363 188.239 19.143 188.239 19.6896V25.3896H186.539V15.1896ZM196.908 25.7096C196.161 25.7096 195.495 25.563 194.908 25.2696C194.321 24.9763 193.868 24.5763 193.548 24.0696C193.228 23.5496 193.068 22.963 193.068 22.3096C193.068 21.2296 193.475 20.3896 194.288 19.7896C195.101 19.1763 196.128 18.8696 197.368 18.8696C197.981 18.8696 198.548 18.9363 199.068 19.0696C199.601 19.203 200.008 19.3563 200.288 19.5296V18.9096C200.288 18.1496 200.021 17.543 199.488 17.0896C198.955 16.623 198.281 16.3896 197.468 16.3896C196.895 16.3896 196.368 16.5163 195.888 16.7696C195.408 17.0096 195.028 17.3496 194.748 17.7896L193.468 16.8296C193.868 16.2163 194.415 15.7363 195.108 15.3896C195.815 15.043 196.595 14.8696 197.448 14.8696C198.835 14.8696 199.921 15.2363 200.708 15.9696C201.508 16.6896 201.908 17.6763 201.908 18.9296V25.3896H200.288V23.9296H200.208C199.915 24.423 199.475 24.843 198.888 25.1896C198.301 25.5363 197.641 25.7096 196.908 25.7096ZM197.068 24.2096C197.641 24.2096 198.175 24.063 198.668 23.7696C199.161 23.4763 199.555 23.083 199.848 22.5896C200.141 22.0963 200.288 21.5563 200.288 20.9696C199.968 20.7563 199.575 20.583 199.108 20.4496C198.641 20.3163 198.148 20.2496 197.628 20.2496C196.695 20.2496 195.988 20.443 195.508 20.8296C195.041 21.2163 194.808 21.7163 194.808 22.3296C194.808 22.8896 195.021 23.343 195.448 23.6896C195.875 24.0363 196.415 24.2096 197.068 24.2096ZM209.261 11.0696H214.081C214.881 11.0696 215.621 11.2496 216.301 11.6096C216.981 11.9696 217.521 12.4763 217.921 13.1296C218.335 13.7696 218.541 14.4963 218.541 15.3096C218.541 16.123 218.335 16.8563 217.921 17.5096C217.521 18.1496 216.981 18.6496 216.301 19.0096C215.621 19.3696 214.881 19.5496 214.081 19.5496H210.941V25.3896H209.261V11.0696ZM214.121 17.9296C214.655 17.9296 215.121 17.803 215.521 17.5496C215.935 17.2963 216.255 16.9696 216.481 16.5696C216.708 16.1696 216.821 15.7496 216.821 15.3096C216.821 14.8696 216.708 14.4496 216.481 14.0496C216.255 13.6496 215.935 13.323 215.521 13.0696C215.121 12.8163 214.655 12.6896 214.121 12.6896H210.941V17.9296H214.121ZM224.442 25.7096C223.442 25.7096 222.542 25.4696 221.742 24.9896C220.942 24.5096 220.315 23.8563 219.862 23.0296C219.422 22.203 219.202 21.2896 219.202 20.2896C219.202 19.2896 219.422 18.3763 219.862 17.5496C220.315 16.723 220.942 16.0696 221.742 15.5896C222.542 15.1096 223.442 14.8696 224.442 14.8696C225.442 14.8696 226.342 15.1096 227.142 15.5896C227.942 16.0696 228.562 16.723 229.002 17.5496C229.455 18.3763 229.682 19.2896 229.682 20.2896C229.682 21.2896 229.455 22.203 229.002 23.0296C228.562 23.8563 227.942 24.5096 227.142 24.9896C226.342 25.4696 225.442 25.7096 224.442 25.7096ZM224.442 24.1696C225.068 24.1696 225.648 24.0163 226.182 23.7096C226.728 23.3896 227.162 22.9363 227.482 22.3496C227.815 21.763 227.982 21.0763 227.982 20.2896C227.982 19.503 227.815 18.8163 227.482 18.2296C227.162 17.643 226.728 17.1963 226.182 16.8896C225.648 16.5696 225.068 16.4096 224.442 16.4096C223.815 16.4096 223.228 16.5696 222.682 16.8896C222.135 17.1963 221.695 17.643 221.362 18.2296C221.042 18.8163 220.882 19.503 220.882 20.2896C220.882 21.0763 221.042 21.763 221.362 22.3496C221.695 22.9363 222.135 23.3896 222.682 23.7096C223.228 24.0163 223.815 24.1696 224.442 24.1696ZM231.558 11.0696H233.258V25.3896H231.558V11.0696ZM238.897 24.7496L234.677 15.1896H236.517L239.717 22.7696H239.757L242.837 15.1896H244.677L238.377 29.7096H236.617L238.897 24.7496Z" fill="#1B1C1C"/>
</svg>
