<svg width="261" height="107" viewBox="0 0 261 107" fill="none" xmlns="http://www.w3.org/2000/svg">
<path d="M17.5106 72.0791C17.5106 74.3801 16.828 76.2133 15.4627 77.5785C13.9287 79.2046 11.9115 80.0176 9.41108 80.0176C7.01804 80.0176 4.99317 79.1892 3.33645 77.5325C1.67973 75.8758 0.851369 73.8356 0.851369 71.4118C0.851369 68.9881 1.67973 66.9479 3.33645 65.2912C4.99317 63.6345 7.01804 62.8061 9.41108 62.8061C10.6229 62.8061 11.7658 63.0209 12.8396 63.4504C13.9134 63.8799 14.7954 64.4858 15.4857 65.2682L13.9671 66.7868C13.4608 66.1732 12.8012 65.6977 11.9882 65.3602C11.1905 65.0074 10.3315 64.831 9.41108 64.831C7.6163 64.831 6.09765 65.4523 4.85511 66.6948C3.62791 67.9527 3.01431 69.525 3.01431 71.4118C3.01431 73.2987 3.62791 74.871 4.85511 76.1289C6.09765 77.3714 7.6163 77.9927 9.41108 77.9927C11.0525 77.9927 12.4177 77.5325 13.5069 76.6121C14.596 75.6917 15.2249 74.4261 15.3937 72.8154H9.41108V70.8366H17.3955C17.4722 71.2661 17.5106 71.6803 17.5106 72.0791ZM18.9579 74.012C18.9579 72.2785 19.5025 70.8443 20.5916 69.7091C21.6961 68.5739 23.0843 68.0064 24.7564 68.0064C26.4285 68.0064 27.8091 68.5739 28.8982 69.7091C30.0027 70.8443 30.5549 72.2785 30.5549 74.012C30.5549 75.7607 30.0027 77.195 28.8982 78.3148C27.8091 79.45 26.4285 80.0176 24.7564 80.0176C23.0843 80.0176 21.6961 79.45 20.5916 78.3148C19.5025 77.1797 18.9579 75.7454 18.9579 74.012ZM21.0748 74.012C21.0748 75.2238 21.4276 76.2056 22.1333 76.9572C22.8389 77.7089 23.7133 78.0847 24.7564 78.0847C25.7995 78.0847 26.6739 77.7089 27.3795 76.9572C28.0852 76.2056 28.438 75.2238 28.438 74.012C28.438 72.8154 28.0852 71.8414 27.3795 71.0897C26.6586 70.3227 25.7842 69.9392 24.7564 69.9392C23.7286 69.9392 22.8542 70.3227 22.1333 71.0897C21.4276 71.8414 21.0748 72.8154 21.0748 74.012ZM31.8336 74.012C31.8336 72.2785 32.3782 70.8443 33.4673 69.7091C34.5718 68.5739 35.96 68.0064 37.6321 68.0064C39.3042 68.0064 40.6848 68.5739 41.7739 69.7091C42.8784 70.8443 43.4306 72.2785 43.4306 74.012C43.4306 75.7607 42.8784 77.195 41.7739 78.3148C40.6848 79.45 39.3042 80.0176 37.6321 80.0176C35.96 80.0176 34.5718 79.45 33.4673 78.3148C32.3782 77.1797 31.8336 75.7454 31.8336 74.012ZM33.9505 74.012C33.9505 75.2238 34.3033 76.2056 35.009 76.9572C35.7146 77.7089 36.589 78.0847 37.6321 78.0847C38.6752 78.0847 39.5496 77.7089 40.2552 76.9572C40.9609 76.2056 41.3137 75.2238 41.3137 74.012C41.3137 72.8154 40.9609 71.8414 40.2552 71.0897C39.5343 70.3227 38.6599 69.9392 37.6321 69.9392C36.6043 69.9392 35.7299 70.3227 35.009 71.0897C34.3033 71.8414 33.9505 72.8154 33.9505 74.012ZM50.4158 78.0847C51.4589 78.0847 52.3103 77.7089 52.9699 76.9572C53.6602 76.2056 54.0053 75.2238 54.0053 74.012C54.0053 72.8308 53.6602 71.8567 52.9699 71.0897C52.2949 70.3227 51.4435 69.9392 50.4158 69.9392C49.4033 69.9392 48.552 70.3227 47.8617 71.0897C47.1714 71.8567 46.8262 72.8308 46.8262 74.012C46.8262 75.2085 47.1714 76.1826 47.8617 76.9342C48.552 77.7012 49.4033 78.0847 50.4158 78.0847ZM50.3467 84.9877C49.7178 84.9877 49.1272 84.9034 48.575 84.7346C48.0227 84.5812 47.5165 84.3588 47.0563 84.0673C46.6114 83.7759 46.2279 83.4307 45.9058 83.0319C45.5837 82.633 45.3382 82.1882 45.1695 81.6973L47.1714 80.8689C47.4015 81.5286 47.8003 82.0578 48.3679 82.4566C48.9355 82.8555 49.5951 83.0549 50.3467 83.0549C51.4972 83.0549 52.3946 82.7097 53.0389 82.0194C53.6832 81.3291 54.0053 80.3781 54.0053 79.1662V78.0847H53.9133C53.5144 78.683 52.9699 79.1585 52.2796 79.5114C51.6046 79.8488 50.8683 80.0176 50.0706 80.0176C48.598 80.0176 47.3324 79.4423 46.274 78.2918C45.2308 77.1106 44.7093 75.684 44.7093 74.012C44.7093 72.3399 45.2308 70.921 46.274 69.7551C47.3324 68.5893 48.598 68.0064 50.0706 68.0064C50.8683 68.0064 51.6046 68.1828 52.2796 68.5356C52.9699 68.8731 53.5144 69.3409 53.9133 69.9392H54.0053V68.3745H56.0302V79.1662C56.0302 80.9763 55.5163 82.3953 54.4885 83.4231C53.4454 84.4662 52.0648 84.9877 50.3467 84.9877ZM60.7282 63.1743V79.6494H58.6113V63.1743H60.7282ZM68.2575 80.0176C66.6008 80.0176 65.2355 79.45 64.1617 78.3148C63.0879 77.1797 62.551 75.7454 62.551 74.012C62.551 72.2939 63.0726 70.8673 64.1157 69.7321C65.1588 68.5816 66.4934 68.0064 68.1194 68.0064C69.7915 68.0064 71.1184 68.5509 72.1002 69.6401C73.0973 70.7139 73.5958 72.2249 73.5958 74.173L73.5728 74.4031H64.714C64.7446 75.5076 65.1128 76.3973 65.8184 77.0723C66.5241 77.7473 67.3678 78.0847 68.3495 78.0847C69.6994 78.0847 70.7579 77.4098 71.5249 76.0599L73.4117 76.9803C72.9055 77.9313 72.1999 78.6753 71.2948 79.2122C70.4051 79.7491 69.3926 80.0176 68.2575 80.0176ZM64.875 72.6544H71.3408C71.2795 71.872 70.9573 71.2278 70.3744 70.7215C69.8068 70.2 69.0398 69.9392 68.0734 69.9392C67.2757 69.9392 66.5854 70.1846 66.0025 70.6755C65.4349 71.1664 65.0591 71.826 64.875 72.6544ZM80.9558 79.6494V63.1743H85.9949C88.5107 63.1743 90.5279 63.9336 92.0466 65.4523C93.5806 66.9709 94.3476 68.9574 94.3476 71.4118C94.3476 73.8816 93.5806 75.8758 92.0466 77.3944C90.5279 78.8978 88.5107 79.6494 85.9949 79.6494H80.9558ZM83.0727 65.1991V77.6245H85.9949C87.9124 77.6245 89.4234 77.08 90.5279 75.9908C91.6324 74.8863 92.1846 73.36 92.1846 71.4118C92.1846 69.479 91.6324 67.9603 90.5279 66.8559C89.4234 65.7514 87.9124 65.1991 85.9949 65.1991H83.0727ZM101.222 80.0176C99.5653 80.0176 98.2 79.45 97.1262 78.3148C96.0524 77.1797 95.5155 75.7454 95.5155 74.012C95.5155 72.2939 96.0371 70.8673 97.0802 69.7321C98.1233 68.5816 99.4579 68.0064 101.084 68.0064C102.756 68.0064 104.083 68.5509 105.065 69.6401C106.062 70.7139 106.56 72.2249 106.56 74.173L106.537 74.4031H97.6784C97.7091 75.5076 98.0773 76.3973 98.7829 77.0723C99.4886 77.7473 100.332 78.0847 101.314 78.0847C102.664 78.0847 103.722 77.4098 104.489 76.0599L106.376 76.9803C105.87 77.9313 105.164 78.6753 104.259 79.2122C103.37 79.7491 102.357 80.0176 101.222 80.0176ZM97.8395 72.6544H104.305C104.244 71.872 103.922 71.2278 103.339 70.7215C102.771 70.2 102.004 69.9392 101.038 69.9392C100.24 69.9392 99.5499 70.1846 98.967 70.6755C98.3994 71.1664 98.0236 71.826 97.8395 72.6544ZM113.748 79.6494H111.631L107.075 68.3745H109.376L112.689 77.1183H112.735L116.095 68.3745H118.35L113.748 79.6494ZM124.457 80.0176C122.8 80.0176 121.435 79.45 120.361 78.3148C119.287 77.1797 118.75 75.7454 118.75 74.012C118.75 72.2939 119.272 70.8673 120.315 69.7321C121.358 68.5816 122.693 68.0064 124.319 68.0064C125.991 68.0064 127.318 68.5509 128.299 69.6401C129.296 70.7139 129.795 72.2249 129.795 74.173L129.772 74.4031H120.913C120.944 75.5076 121.312 76.3973 122.018 77.0723C122.723 77.7473 123.567 78.0847 124.549 78.0847C125.899 78.0847 126.957 77.4098 127.724 76.0599L129.611 76.9803C129.105 77.9313 128.399 78.6753 127.494 79.2122C126.604 79.7491 125.592 80.0176 124.457 80.0176ZM121.074 72.6544H127.54C127.479 71.872 127.157 71.2278 126.574 70.7215C126.006 70.2 125.239 69.9392 124.273 69.9392C123.475 69.9392 122.785 70.1846 122.202 70.6755C121.634 71.1664 121.258 71.826 121.074 72.6544ZM133.848 63.1743V79.6494H131.731V63.1743H133.848ZM135.671 74.012C135.671 72.2785 136.215 70.8443 137.304 69.7091C138.409 68.5739 139.797 68.0064 141.469 68.0064C143.141 68.0064 144.522 68.5739 145.611 69.7091C146.715 70.8443 147.268 72.2785 147.268 74.012C147.268 75.7607 146.715 77.195 145.611 78.3148C144.522 79.45 143.141 80.0176 141.469 80.0176C139.797 80.0176 138.409 79.45 137.304 78.3148C136.215 77.1797 135.671 75.7454 135.671 74.012ZM137.788 74.012C137.788 75.2238 138.14 76.2056 138.846 76.9572C139.552 77.7089 140.426 78.0847 141.469 78.0847C142.512 78.0847 143.387 77.7089 144.092 76.9572C144.798 76.2056 145.151 75.2238 145.151 74.012C145.151 72.8154 144.798 71.8414 144.092 71.0897C143.371 70.3227 142.497 69.9392 141.469 69.9392C140.441 69.9392 139.567 70.3227 138.846 71.0897C138.14 71.8414 137.788 72.8154 137.788 74.012ZM154.601 78.0847C155.613 78.0847 156.464 77.7012 157.155 76.9342C157.845 76.1826 158.19 75.2085 158.19 74.012C158.19 72.8308 157.845 71.8567 157.155 71.0897C156.464 70.3227 155.613 69.9392 154.601 69.9392C153.573 69.9392 152.714 70.3227 152.024 71.0897C151.349 71.8567 151.011 72.8308 151.011 74.012C151.011 75.2085 151.349 76.1902 152.024 76.9572C152.714 77.7089 153.573 78.0847 154.601 78.0847ZM154.946 80.0176C154.117 80.0176 153.358 79.8412 152.668 79.4883C151.993 79.1355 151.471 78.6677 151.103 78.0847H151.011L151.103 79.6494V84.6196H148.986V68.3745H151.011V69.9392H151.103C151.471 69.3563 151.993 68.8884 152.668 68.5356C153.358 68.1828 154.117 68.0064 154.946 68.0064C156.434 68.0064 157.692 68.5893 158.719 69.7551C159.778 70.9363 160.307 72.3552 160.307 74.012C160.307 75.684 159.778 77.103 158.719 78.2688C157.692 79.4347 156.434 80.0176 154.946 80.0176ZM167.308 80.0176C165.652 80.0176 164.286 79.45 163.212 78.3148C162.139 77.1797 161.602 75.7454 161.602 74.012C161.602 72.2939 162.123 70.8673 163.166 69.7321C164.21 68.5816 165.544 68.0064 167.17 68.0064C168.842 68.0064 170.169 68.5509 171.151 69.6401C172.148 70.7139 172.647 72.2249 172.647 74.173L172.624 74.4031H163.765C163.795 75.5076 164.164 76.3973 164.869 77.0723C165.575 77.7473 166.419 78.0847 167.4 78.0847C168.75 78.0847 169.809 77.4098 170.576 76.0599L172.463 76.9803C171.956 77.9313 171.251 78.6753 170.346 79.2122C169.456 79.7491 168.443 80.0176 167.308 80.0176ZM163.926 72.6544H170.392C170.33 71.872 170.008 71.2278 169.425 70.7215C168.858 70.2 168.091 69.9392 167.124 69.9392C166.327 69.9392 165.636 70.1846 165.053 70.6755C164.486 71.1664 164.11 71.826 163.926 72.6544ZM176.699 79.6494H174.582V68.3745H176.607V70.2153H176.699C176.914 69.6171 177.351 69.1108 178.011 68.6967C178.686 68.2671 179.346 68.0524 179.99 68.0524C180.603 68.0524 181.125 68.1444 181.554 68.3285L180.91 70.3764C180.649 70.269 180.235 70.2153 179.668 70.2153C178.87 70.2153 178.172 70.5375 177.574 71.1817C176.991 71.826 176.699 72.5777 176.699 73.4367V79.6494ZM203.77 72.0791C203.77 74.3801 203.087 76.2133 201.722 77.5785C200.188 79.2046 198.171 80.0176 195.671 80.0176C193.278 80.0176 191.253 79.1892 189.596 77.5325C187.939 75.8758 187.111 73.8356 187.111 71.4118C187.111 68.9881 187.939 66.9479 189.596 65.2912C191.253 63.6345 193.278 62.8061 195.671 62.8061C196.882 62.8061 198.025 63.0209 199.099 63.4504C200.173 63.8799 201.055 64.4858 201.745 65.2682L200.227 66.7868C199.72 66.1732 199.061 65.6977 198.248 65.3602C197.45 65.0074 196.591 64.831 195.671 64.831C193.876 64.831 192.357 65.4523 191.115 66.6948C189.887 67.9527 189.274 69.525 189.274 71.4118C189.274 73.2987 189.887 74.871 191.115 76.1289C192.357 77.3714 193.876 77.9927 195.671 77.9927C197.312 77.9927 198.677 77.5325 199.766 76.6121C200.856 75.6917 201.484 74.4261 201.653 72.8154H195.671V70.8366H203.655C203.732 71.2661 203.77 71.6803 203.77 72.0791ZM207.642 79.6494H205.525V68.3745H207.549V70.2153H207.642C207.856 69.6171 208.293 69.1108 208.953 68.6967C209.628 68.2671 210.288 68.0524 210.932 68.0524C211.546 68.0524 212.067 68.1444 212.497 68.3285L211.852 70.3764C211.592 70.269 211.177 70.2153 210.61 70.2153C209.812 70.2153 209.114 70.5375 208.516 71.1817C207.933 71.826 207.642 72.5777 207.642 73.4367V79.6494ZM212.543 74.012C212.543 72.2785 213.087 70.8443 214.177 69.7091C215.281 68.5739 216.669 68.0064 218.341 68.0064C220.013 68.0064 221.394 68.5739 222.483 69.7091C223.588 70.8443 224.14 72.2785 224.14 74.012C224.14 75.7607 223.588 77.195 222.483 78.3148C221.394 79.45 220.013 80.0176 218.341 80.0176C216.669 80.0176 215.281 79.45 214.177 78.3148C213.087 77.1797 212.543 75.7454 212.543 74.012ZM214.66 74.012C214.66 75.2238 215.013 76.2056 215.718 76.9572C216.424 77.7089 217.298 78.0847 218.341 78.0847C219.384 78.0847 220.259 77.7089 220.964 76.9572C221.67 76.2056 222.023 75.2238 222.023 74.012C222.023 72.8154 221.67 71.8414 220.964 71.0897C220.244 70.3227 219.369 69.9392 218.341 69.9392C217.314 69.9392 216.439 70.3227 215.718 71.0897C215.013 71.8414 214.66 72.8154 214.66 74.012ZM235.845 79.6494H233.82V78.0847H233.728C233.406 78.637 232.907 79.0972 232.232 79.4653C231.573 79.8335 230.882 80.0176 230.161 80.0176C228.781 80.0176 227.715 79.6264 226.963 78.8441C226.227 78.0464 225.858 76.9189 225.858 75.4616V68.3745H227.975V75.3235C228.021 77.1643 228.949 78.0847 230.76 78.0847C231.603 78.0847 232.309 77.7473 232.876 77.0723C233.444 76.382 233.728 75.5613 233.728 74.6102V68.3745H235.845V79.6494ZM243.944 78.0847C244.957 78.0847 245.808 77.7012 246.498 76.9342C247.188 76.1826 247.534 75.2085 247.534 74.012C247.534 72.8308 247.188 71.8567 246.498 71.0897C245.808 70.3227 244.957 69.9392 243.944 69.9392C242.916 69.9392 242.057 70.3227 241.367 71.0897C240.692 71.8567 240.355 72.8308 240.355 74.012C240.355 75.2085 240.692 76.1902 241.367 76.9572C242.057 77.7089 242.916 78.0847 243.944 78.0847ZM244.289 80.0176C243.461 80.0176 242.702 79.8412 242.011 79.4883C241.336 79.1355 240.815 78.6677 240.447 78.0847H240.355L240.447 79.6494V84.6196H238.33V68.3745H240.355V69.9392H240.447C240.815 69.3563 241.336 68.8884 242.011 68.5356C242.702 68.1828 243.461 68.0064 244.289 68.0064C245.777 68.0064 247.035 68.5893 248.063 69.7551C249.121 70.9363 249.651 72.3552 249.651 74.012C249.651 75.684 249.121 77.103 248.063 78.2688C247.035 79.4347 245.777 80.0176 244.289 80.0176ZM260.106 76.5201C260.106 77.5018 259.676 78.3302 258.817 79.0051C257.958 79.6801 256.877 80.0176 255.573 80.0176C254.438 80.0176 253.441 79.7261 252.582 79.1432C251.723 78.5449 251.109 77.7626 250.741 76.7962L252.628 75.9908C252.904 76.6658 253.303 77.195 253.824 77.5785C254.361 77.9467 254.944 78.1308 255.573 78.1308C256.248 78.1308 256.808 77.985 257.253 77.6936C257.713 77.4021 257.943 77.057 257.943 76.6581C257.943 75.9371 257.391 75.4079 256.286 75.0704L254.353 74.5872C252.16 74.035 251.063 72.9765 251.063 71.4118C251.063 70.3841 251.477 69.5634 252.306 68.9498C253.149 68.3208 254.223 68.0064 255.527 68.0064C256.524 68.0064 257.421 68.2441 258.219 68.7197C259.032 69.1952 259.6 69.8318 259.922 70.6295L258.035 71.4118C257.82 70.9363 257.467 70.5681 256.977 70.3074C256.501 70.0312 255.964 69.8932 255.366 69.8932C254.814 69.8932 254.315 70.0312 253.87 70.3074C253.441 70.5835 253.226 70.921 253.226 71.3198C253.226 71.9641 253.832 72.4243 255.044 72.7004L256.746 73.1376C258.986 73.6898 260.106 74.8173 260.106 76.5201Z" fill="#3B3E3F"/>
<path d="M33.4301 96.8791C33.4301 98.5052 32.8881 99.8653 31.804 100.96C30.7098 102.064 29.3701 102.616 27.785 102.616C26.1896 102.616 24.8499 102.064 23.7659 100.96C22.6819 99.8653 22.1398 98.5052 22.1398 96.8791C22.1398 95.2531 22.6819 93.8929 23.7659 92.7987C24.8499 91.6942 26.1896 91.142 27.785 91.142C29.3803 91.142 30.72 91.6993 31.804 92.814C32.8881 93.9083 33.4301 95.2633 33.4301 96.8791ZM23.5818 96.8791C23.5818 98.1472 23.9806 99.1955 24.7783 100.024C25.5862 100.852 26.5884 101.266 27.785 101.266C28.9815 101.266 29.9786 100.852 30.7763 100.024C31.5842 99.2057 31.9881 98.1575 31.9881 96.8791C31.9881 95.6008 31.5842 94.5526 30.7763 93.7344C29.9786 92.9061 28.9815 92.4919 27.785 92.4919C26.5884 92.4919 25.5862 92.9061 24.7783 93.7344C23.9806 94.5628 23.5818 95.611 23.5818 96.8791ZM34.7752 94.8543H36.1251V95.8974H36.1865C36.4012 95.5292 36.7285 95.2224 37.1682 94.977C37.6182 94.7315 38.0835 94.6088 38.5642 94.6088C39.4846 94.6088 40.1902 94.8747 40.6811 95.4065C41.1822 95.9281 41.4328 96.6746 41.4328 97.6461V102.371H40.0215V97.7382C39.9908 96.511 39.3721 95.8974 38.1653 95.8974C37.6029 95.8974 37.1324 96.1275 36.7541 96.5877C36.3757 97.0376 36.1865 97.5797 36.1865 98.2137V102.371H34.7752V94.8543ZM51.5754 102.616C49.9493 102.616 48.5892 102.069 47.4949 100.975C46.4109 99.8807 45.8689 98.5154 45.8689 96.8791C45.8689 95.2429 46.4109 93.8827 47.4949 92.7987C48.579 91.6942 49.9391 91.142 51.5754 91.142C53.2321 91.142 54.5769 91.7402 55.6098 92.9368L54.5973 93.9185C53.8099 92.9674 52.8026 92.4919 51.5754 92.4919C50.3584 92.4919 49.3408 92.901 48.5227 93.7191C47.7148 94.527 47.3108 95.5803 47.3108 96.8791C47.3108 98.1779 47.7148 99.2313 48.5227 100.039C49.3408 100.857 50.3584 101.266 51.5754 101.266C52.8537 101.266 53.9633 100.729 54.9041 99.6557L55.9319 100.653C55.4104 101.277 54.7712 101.762 54.0144 102.11C53.2577 102.448 52.4446 102.616 51.5754 102.616ZM58.0639 100.07C58.0639 100.438 58.2173 100.745 58.5241 100.99C58.8412 101.236 59.2093 101.358 59.6286 101.358C60.2218 101.358 60.7484 101.139 61.2086 100.699C61.6791 100.259 61.9143 99.7426 61.9143 99.1495C61.4745 98.8017 60.8609 98.6279 60.0735 98.6279C59.5008 98.6279 59.0201 98.766 58.6315 99.0421C58.2531 99.3182 58.0639 99.6608 58.0639 100.07ZM59.8894 94.6088C60.9325 94.6088 61.7558 94.89 62.3591 95.4525C62.9625 96.0048 63.2642 96.7666 63.2642 97.7382V102.371H61.9143V101.328H61.8529C61.27 102.187 60.4928 102.616 59.5212 102.616C58.6929 102.616 57.9975 102.371 57.435 101.88C56.8828 101.389 56.6066 100.775 56.6066 100.039C56.6066 99.2619 56.8981 98.6432 57.481 98.183C58.0742 97.7228 58.8616 97.4927 59.8434 97.4927C60.682 97.4927 61.3723 97.6461 61.9143 97.9529V97.6308C61.9143 97.1399 61.72 96.7257 61.3314 96.3883C60.9427 96.0405 60.4877 95.8667 59.9661 95.8667C59.1786 95.8667 58.5548 96.1991 58.0946 96.8638L56.8521 96.0815C57.5373 95.0997 58.5497 94.6088 59.8894 94.6088ZM66.2672 102.371H64.856V94.8543H66.2059V95.8974H66.2672C66.482 95.5292 66.8093 95.2224 67.249 94.977C67.699 94.7315 68.1438 94.6088 68.5836 94.6088C69.1358 94.6088 69.6216 94.7366 70.0409 94.9923C70.4602 95.248 70.767 95.6008 70.9613 96.0508C71.5851 95.0895 72.4493 94.6088 73.5537 94.6088C74.423 94.6088 75.0928 94.8747 75.5633 95.4065C76.0337 95.9383 76.2689 96.6951 76.2689 97.6768V102.371H74.8576V97.8916C74.8576 97.1859 74.7298 96.6797 74.4741 96.3729C74.2185 96.0559 73.7889 95.8974 73.1856 95.8974C72.6436 95.8974 72.1885 96.1275 71.8203 96.5877C71.4522 97.0479 71.2681 97.5899 71.2681 98.2137V102.371H69.8568V97.8916C69.8568 97.1859 69.729 96.6797 69.4733 96.3729C69.2176 96.0559 68.7881 95.8974 68.1847 95.8974C67.6427 95.8974 67.1876 96.1275 66.8195 96.5877C66.4513 97.0479 66.2672 97.5899 66.2672 98.2137V102.371ZM81.6005 101.328C82.2755 101.328 82.8431 101.072 83.3033 100.561C83.7635 100.06 83.9936 99.4102 83.9936 98.6126C83.9936 97.8251 83.7635 97.1757 83.3033 96.6644C82.8431 96.153 82.2755 95.8974 81.6005 95.8974C80.9153 95.8974 80.3426 96.153 79.8824 96.6644C79.4325 97.1757 79.2075 97.8251 79.2075 98.6126C79.2075 99.4102 79.4325 100.065 79.8824 100.576C80.3426 101.077 80.9153 101.328 81.6005 101.328ZM81.8306 102.616C81.2784 102.616 80.7722 102.499 80.312 102.263C79.862 102.028 79.5143 101.716 79.2688 101.328H79.2075L79.2688 102.371V105.684H77.8576V94.8543H79.2075V95.8974H79.2688C79.5143 95.5088 79.862 95.1968 80.312 94.9616C80.7722 94.7264 81.2784 94.6088 81.8306 94.6088C82.8226 94.6088 83.6612 94.9974 84.3464 95.7747C85.052 96.5621 85.4048 97.5081 85.4048 98.6126C85.4048 99.7273 85.052 100.673 84.3464 101.45C83.6612 102.228 82.8226 102.616 81.8306 102.616ZM93.2188 102.371H91.8688V101.328H91.8075C91.5927 101.696 91.2604 102.003 90.8104 102.248C90.3706 102.494 89.9104 102.616 89.4298 102.616C88.5094 102.616 87.7986 102.356 87.2975 101.834C86.8066 101.302 86.5612 100.551 86.5612 99.579V94.8543H87.9725V99.4869C88.0032 100.714 88.6219 101.328 89.8286 101.328C90.3911 101.328 90.8615 101.103 91.2399 100.653C91.6183 100.193 91.8075 99.6454 91.8075 99.0114V94.8543H93.2188V102.371ZM100.614 100.285C100.614 100.939 100.328 101.491 99.7553 101.941C99.1826 102.391 98.4616 102.616 97.5923 102.616C96.8356 102.616 96.1708 102.422 95.5981 102.033C95.0254 101.635 94.6164 101.113 94.3709 100.469L95.6288 99.9318C95.8129 100.382 96.0788 100.735 96.4265 100.99C96.7844 101.236 97.173 101.358 97.5923 101.358C98.0423 101.358 98.4156 101.261 98.7122 101.067C99.019 100.873 99.1724 100.643 99.1724 100.377C99.1724 99.896 98.8042 99.5432 98.0679 99.3182L96.7793 98.9961C95.3169 98.6279 94.5857 97.9223 94.5857 96.8791C94.5857 96.1939 94.8618 95.6468 95.4141 95.2378C95.9765 94.8185 96.6924 94.6088 97.5617 94.6088C98.2264 94.6088 98.8246 94.7673 99.3564 95.0844C99.8984 95.4014 100.277 95.8258 100.492 96.3576L99.2337 96.8791C99.0905 96.5621 98.8553 96.3167 98.5281 96.1428C98.211 95.9587 97.8531 95.8667 97.4543 95.8667C97.0861 95.8667 96.7537 95.9587 96.4572 96.1428C96.1708 96.3269 96.0277 96.5519 96.0277 96.8178C96.0277 97.2473 96.4316 97.5541 97.2395 97.7382L98.3747 98.0296C99.8678 98.3978 100.614 99.1495 100.614 100.285Z" fill="#2A83F9"/>
<path d="M123.33 103.096C122.113 103.096 121.131 102.697 120.385 101.9C119.638 101.112 119.265 100.069 119.265 98.7701V91.8672H120.676V98.8315C120.676 99.7315 120.911 100.442 121.382 100.964C121.852 101.485 122.502 101.746 123.33 101.746C124.158 101.746 124.808 101.485 125.278 100.964C125.749 100.442 125.984 99.7315 125.984 98.8315V91.8672H127.395V98.7701C127.395 100.1 127.027 101.153 126.291 101.93C125.554 102.707 124.567 103.096 123.33 103.096ZM129.107 95.334H130.457V96.3771H130.518C130.733 96.009 131.06 95.7022 131.5 95.4567C131.95 95.2113 132.415 95.0886 132.896 95.0886C133.816 95.0886 134.522 95.3544 135.013 95.8862C135.514 96.4078 135.765 97.1543 135.765 98.1259V102.851H134.353V98.2179C134.323 96.9907 133.704 96.3771 132.497 96.3771C131.935 96.3771 131.464 96.6072 131.086 97.0674C130.707 97.5174 130.518 98.0594 130.518 98.6934V102.851H129.107V95.334ZM139.247 92.7415C139.247 93.0177 139.149 93.2529 138.955 93.4472C138.761 93.6415 138.526 93.7386 138.249 93.7386C137.973 93.7386 137.738 93.6415 137.544 93.4472C137.35 93.2529 137.252 93.0177 137.252 92.7415C137.252 92.4654 137.35 92.2302 137.544 92.0359C137.738 91.8416 137.973 91.7444 138.249 91.7444C138.526 91.7444 138.761 91.8416 138.955 92.0359C139.149 92.2302 139.247 92.4654 139.247 92.7415ZM138.955 95.334V102.851H137.544V95.334H138.955ZM144.443 102.851H143.031L139.994 95.334H141.528L143.737 101.163H143.768L146.007 95.334H147.511L144.443 102.851ZM151.582 103.096C150.477 103.096 149.567 102.718 148.851 101.961C148.135 101.204 147.778 100.248 147.778 99.0923C147.778 97.9469 148.125 96.9958 148.821 96.2391C149.516 95.4721 150.406 95.0886 151.49 95.0886C152.605 95.0886 153.489 95.4516 154.144 96.1777C154.808 96.8936 155.141 97.9009 155.141 99.1997L155.125 99.3531H149.219C149.24 100.089 149.485 100.683 149.956 101.133C150.426 101.582 150.989 101.807 151.643 101.807C152.543 101.807 153.249 101.357 153.76 100.458L155.018 101.071C154.681 101.705 154.21 102.201 153.607 102.559C153.014 102.917 152.339 103.096 151.582 103.096ZM149.327 98.1872H153.637C153.596 97.6657 153.382 97.2362 152.993 96.8987C152.615 96.551 152.103 96.3771 151.459 96.3771C150.927 96.3771 150.467 96.5407 150.079 96.868C149.7 97.1952 149.45 97.635 149.327 98.1872ZM157.843 102.851H156.431V95.334H157.781V96.5612H157.843C157.986 96.1624 158.277 95.8249 158.717 95.5488C159.167 95.2624 159.607 95.1192 160.036 95.1192C160.445 95.1192 160.793 95.1806 161.079 95.3033L160.65 96.6686C160.476 96.597 160.2 96.5612 159.821 96.5612C159.29 96.5612 158.824 96.776 158.426 97.2055C158.037 97.635 157.843 98.1361 157.843 98.7088V102.851ZM167.457 100.764C167.457 101.419 167.171 101.971 166.598 102.421C166.025 102.871 165.304 103.096 164.435 103.096C163.678 103.096 163.013 102.902 162.441 102.513C161.868 102.114 161.459 101.593 161.214 100.948L162.471 100.412C162.656 100.862 162.921 101.214 163.269 101.47C163.627 101.715 164.016 101.838 164.435 101.838C164.885 101.838 165.258 101.741 165.555 101.547C165.862 101.352 166.015 101.122 166.015 100.856C166.015 100.376 165.647 100.023 164.91 99.7979L163.622 99.4758C162.16 99.1076 161.428 98.402 161.428 97.3589C161.428 96.6737 161.704 96.1266 162.257 95.7175C162.819 95.2982 163.535 95.0886 164.404 95.0886C165.069 95.0886 165.667 95.2471 166.199 95.5641C166.741 95.8811 167.119 96.3055 167.334 96.8373L166.076 97.3589C165.933 97.0418 165.698 96.7964 165.371 96.6226C165.054 96.4385 164.696 96.3464 164.297 96.3464C163.929 96.3464 163.596 96.4385 163.3 96.6226C163.013 96.8066 162.87 97.0316 162.87 97.2975C162.87 97.727 163.274 98.0338 164.082 98.2179L165.217 98.5094C166.71 98.8775 167.457 99.6292 167.457 100.764ZM170.436 92.7415C170.436 93.0177 170.339 93.2529 170.144 93.4472C169.95 93.6415 169.715 93.7386 169.439 93.7386C169.163 93.7386 168.927 93.6415 168.733 93.4472C168.539 93.2529 168.442 93.0177 168.442 92.7415C168.442 92.4654 168.539 92.2302 168.733 92.0359C168.927 91.8416 169.163 91.7444 169.439 91.7444C169.715 91.7444 169.95 91.8416 170.144 92.0359C170.339 92.2302 170.436 92.4654 170.436 92.7415ZM170.144 95.334V102.851H168.733V95.334H170.144ZM174.882 102.973C174.268 102.973 173.757 102.784 173.348 102.406C172.949 102.027 172.745 101.501 172.734 100.826V96.6226H171.415V95.334H172.734V93.033H174.146V95.334H175.987V96.6226H174.146V100.366C174.146 100.867 174.243 101.209 174.437 101.393C174.632 101.567 174.851 101.654 175.097 101.654C175.209 101.654 175.317 101.644 175.419 101.623C175.531 101.593 175.634 101.557 175.726 101.516L176.171 102.774C175.802 102.907 175.373 102.973 174.882 102.973ZM184.123 95.334L179.413 106.164H177.956L179.705 102.375L176.606 95.334H178.14L180.38 100.734H180.411L182.589 95.334H184.123ZM187.985 99.0923C187.985 97.9367 188.348 96.9805 189.074 96.2237C189.811 95.4669 190.736 95.0886 191.851 95.0886C192.965 95.0886 193.886 95.4669 194.612 96.2237C195.348 96.9805 195.716 97.9367 195.716 99.0923C195.716 100.258 195.348 101.214 194.612 101.961C193.886 102.718 192.965 103.096 191.851 103.096C190.736 103.096 189.811 102.718 189.074 101.961C188.348 101.204 187.985 100.248 187.985 99.0923ZM189.396 99.0923C189.396 99.9002 189.632 100.555 190.102 101.056C190.572 101.557 191.155 101.807 191.851 101.807C192.546 101.807 193.129 101.557 193.6 101.056C194.07 100.555 194.305 99.9002 194.305 99.0923C194.305 98.2946 194.07 97.6452 193.6 97.1441C193.119 96.6328 192.536 96.3771 191.851 96.3771C191.166 96.3771 190.583 96.6328 190.102 97.1441C189.632 97.6452 189.396 98.2946 189.396 99.0923ZM200.241 91.7444C200.752 91.7444 201.171 91.8314 201.498 92.0052L201.115 93.2478C200.869 93.125 200.593 93.0637 200.287 93.0637C199.939 93.0637 199.652 93.1864 199.427 93.4318C199.213 93.667 199.105 93.9841 199.105 94.3829V95.334H201.069V96.6226H199.105V102.851H197.694V96.6226H196.283V95.334H197.694V94.2449C197.694 93.4983 197.929 92.8949 198.4 92.4347C198.88 91.9745 199.494 91.7444 200.241 91.7444ZM207.449 102.851H206.037V91.8672H207.449V102.851ZM210.828 91.8672V102.851H209.417V91.8672H210.828ZM212.044 99.0923C212.044 97.9367 212.407 96.9805 213.133 96.2237C213.869 95.4669 214.795 95.0886 215.909 95.0886C217.024 95.0886 217.944 95.4669 218.671 96.2237C219.407 96.9805 219.775 97.9367 219.775 99.0923C219.775 100.258 219.407 101.214 218.671 101.961C217.944 102.718 217.024 103.096 215.909 103.096C214.795 103.096 213.869 102.718 213.133 101.961C212.407 101.204 212.044 100.248 212.044 99.0923ZM213.455 99.0923C213.455 99.9002 213.69 100.555 214.161 101.056C214.631 101.557 215.214 101.807 215.909 101.807C216.605 101.807 217.188 101.557 217.658 101.056C218.129 100.555 218.364 99.9002 218.364 99.0923C218.364 98.2946 218.129 97.6452 217.658 97.1441C217.177 96.6328 216.595 96.3771 215.909 96.3771C215.224 96.3771 214.641 96.6328 214.161 97.1441C213.69 97.6452 213.455 98.2946 213.455 99.0923ZM222.318 102.851H220.907V95.334H222.257V96.5612H222.318C222.462 96.1624 222.753 95.8249 223.193 95.5488C223.643 95.2624 224.083 95.1192 224.512 95.1192C224.921 95.1192 225.269 95.1806 225.555 95.3033L225.126 96.6686C224.952 96.597 224.676 96.5612 224.297 96.5612C223.766 96.5612 223.3 96.776 222.901 97.2055C222.513 97.635 222.318 98.1361 222.318 98.7088V102.851ZM228.305 92.7415C228.305 93.0177 228.208 93.2529 228.014 93.4472C227.82 93.6415 227.584 93.7386 227.308 93.7386C227.032 93.7386 226.797 93.6415 226.603 93.4472C226.408 93.2529 226.311 93.0177 226.311 92.7415C226.311 92.4654 226.408 92.2302 226.603 92.0359C226.797 91.8416 227.032 91.7444 227.308 91.7444C227.584 91.7444 227.82 91.8416 228.014 92.0359C228.208 92.2302 228.305 92.4654 228.305 92.7415ZM228.014 95.334V102.851H226.603V95.334H228.014ZM229.851 95.334H231.2V96.3771H231.262C231.477 96.009 231.804 95.7022 232.244 95.4567C232.694 95.2113 233.159 95.0886 233.64 95.0886C234.56 95.0886 235.266 95.3544 235.756 95.8862C236.258 96.4078 236.508 97.1543 236.508 98.1259V102.851H235.097V98.2179C235.066 96.9907 234.447 96.3771 233.241 96.3771C232.678 96.3771 232.208 96.6072 231.829 97.0674C231.451 97.5174 231.262 98.0594 231.262 98.6934V102.851H229.851V95.334Z" fill="#73787B"/>
<path d="M142.854 7.31567L168.108 21.9366" stroke="#02A14F" stroke-width="13.2918" stroke-linecap="round"/>
<path d="M92.9985 21.9365L118.253 7.3156" stroke="#FF2828" stroke-width="13.2918" stroke-linecap="round"/>
<path d="M142.854 36.5574L168.108 21.9364" stroke="#FFB40B" stroke-width="13.2918" stroke-linecap="round"/>
<path d="M92.9985 21.9365L118.253 36.5574" stroke="#2A83F9" stroke-width="13.2918" stroke-linecap="round"/>
<circle cx="110.016" cy="97.6778" r="1.67781" fill="#656C72"/>
</svg>
