
<svg xmlns="http://www.w3.org/2000/svg" viewBox="0 0 232 232" fill="none">
  <!-- Blue part -->
  <path d="M73.5 146C91.5 146 106 131.5 106 113.5C106 95.5 91.5 81 73.5 81C55.5 81 41 95.5 41 113.5C41 131.5 55.5 146 73.5 146Z" fill="#4285F4"/>
  <!-- Red part -->
  <path d="M73.5 81C55.5 81 41 95.5 41 113.5C41 131.5 55.5 146 73.5 146L106 113.5L73.5 81Z" fill="#EA4335"/>
  <!-- Yellow part -->
  <path d="M162.5 146C180.5 146 195 131.5 195 113.5C195 95.5 180.5 81 162.5 81L130 113.5L162.5 146Z" fill="#FBBC05"/>
  <!-- Green part -->
  <path d="M162.5 81C144.5 81 130 95.5 130 113.5C130 131.5 144.5 146 162.5 146C180.5 146 195 131.5 195 113.5C195 95.5 180.5 81 162.5 81Z" fill="#34A853"/>
</svg>
