<svg width="216" height="38" viewBox="0 0 216 38" fill="none" xmlns="http://www.w3.org/2000/svg">
<path d="M29.8622 3.53959C32.1622 6.73959 31.4622 11.3396 28.1622 13.6396L12.6622 24.7396C9.46219 27.1396 4.96219 26.3396 2.56219 23.1396C0.262186 19.8396 0.962198 15.3396 4.2622 13.0396L19.7622 1.83959C22.9622 -0.460405 27.4622 0.239594 29.8622 3.53959Z" fill="#EA4435" stroke="#100F10" stroke-miterlimit="10"/>
<path d="M2.56219 14.6395C0.262186 17.9395 0.962198 22.4395 4.2622 24.7395L19.7622 35.9395C22.9622 38.2395 27.4622 37.5395 29.8622 34.2395C32.1622 31.0395 31.4622 26.4395 28.1622 24.1395L12.6622 13.0395C9.46219 10.6395 4.96219 11.4395 2.56219 14.6395Z" fill="#537CBE" stroke="#100F10" stroke-miterlimit="10"/>
<path d="M67.2622 14.6395C69.5622 17.9395 68.8622 22.4395 65.5622 24.7395L50.0622 35.9395C46.8622 38.2395 42.3622 37.5395 39.9622 34.2395C37.6622 31.0395 38.3622 26.4395 41.6622 24.1395L57.1622 13.0395C60.3622 10.6395 64.8622 11.4395 67.2622 14.6395Z" fill="#F8AB19" stroke="#100F10" stroke-miterlimit="10"/>
<path d="M39.9622 3.53959C37.6622 6.73959 38.3622 11.3396 41.6622 13.6396L57.1622 24.7396C60.3622 27.1396 64.8622 26.3396 67.2622 23.1396C69.5622 19.8396 68.8622 15.3396 65.5622 13.0396L50.0622 1.83959C46.8622 -0.460405 42.3622 0.239594 39.9622 3.53959Z" fill="#32A852" stroke="#100F10" stroke-miterlimit="10"/>
<path d="M94.9281 25.7096C93.5815 25.7096 92.3415 25.383 91.2081 24.7296C90.0748 24.0763 89.1748 23.1763 88.5081 22.0296C87.8415 20.883 87.5081 19.6163 87.5081 18.2296C87.5081 16.843 87.8415 15.5763 88.5081 14.4296C89.1748 13.283 90.0748 12.383 91.2081 11.7296C92.3415 11.0763 93.5815 10.7496 94.9281 10.7496C95.9815 10.7496 96.9681 10.9363 97.8881 11.3096C98.8215 11.683 99.5881 12.2096 100.188 12.8896L98.9681 14.1096C98.5148 13.5496 97.9348 13.123 97.2281 12.8296C96.5215 12.523 95.7615 12.3696 94.9481 12.3696C93.9348 12.3696 92.9881 12.6163 92.1081 13.1096C91.2415 13.5896 90.5415 14.2763 90.0081 15.1696C89.4881 16.0496 89.2281 17.0696 89.2281 18.2296C89.2281 19.3896 89.4881 20.4163 90.0081 21.3096C90.5415 22.1896 91.2481 22.8763 92.1281 23.3696C93.0081 23.8496 93.9481 24.0896 94.9481 24.0896C95.9081 24.0896 96.7081 23.943 97.3481 23.6496C98.0015 23.343 98.5615 22.943 99.0281 22.4496C99.3748 22.0763 99.6548 21.6296 99.8681 21.1096C100.081 20.5763 100.215 19.9896 100.268 19.3496H94.9681V17.7696H101.848C101.915 18.143 101.948 18.4896 101.948 18.8096C101.948 19.6896 101.808 20.5496 101.528 21.3896C101.248 22.2163 100.801 22.943 100.188 23.5696C98.8681 24.9963 97.1148 25.7096 94.9281 25.7096ZM104.478 11.0696H108.798C110.264 11.0696 111.544 11.3763 112.638 11.9896C113.731 12.5896 114.571 13.4296 115.158 14.5096C115.744 15.5896 116.038 16.8296 116.038 18.2296C116.038 19.6296 115.744 20.8696 115.158 21.9496C114.571 23.0296 113.731 23.8763 112.638 24.4896C111.544 25.0896 110.264 25.3896 108.798 25.3896H104.478V11.0696ZM108.798 23.7696C110.491 23.7696 111.831 23.283 112.818 22.3096C113.818 21.3363 114.318 19.9763 114.318 18.2296C114.318 16.483 113.818 15.123 112.818 14.1496C111.831 13.1763 110.491 12.6896 108.798 12.6896H106.158V23.7696H108.798ZM122.54 25.7096C121.42 25.7096 120.393 25.3696 119.46 24.6896C118.527 24.0096 117.887 23.0563 117.54 21.8296L119.16 21.1696C119.387 22.023 119.807 22.723 120.42 23.2696C121.033 23.8163 121.753 24.0896 122.58 24.0896C123.407 24.0896 124.107 23.8696 124.68 23.4296C125.253 22.9763 125.54 22.363 125.54 21.5896C125.54 20.923 125.293 20.3763 124.8 19.9496C124.32 19.5096 123.527 19.103 122.42 18.7296L121.52 18.4096C120.507 18.0496 119.68 17.5763 119.04 16.9896C118.4 16.403 118.08 15.5896 118.08 14.5496C118.08 13.8696 118.267 13.243 118.64 12.6696C119.013 12.083 119.533 11.6163 120.2 11.2696C120.867 10.923 121.613 10.7496 122.44 10.7496C123.267 10.7496 123.987 10.903 124.6 11.2096C125.213 11.5163 125.7 11.8896 126.06 12.3296C126.433 12.7696 126.693 13.203 126.84 13.6296L125.24 14.3096C125.107 13.8163 124.8 13.3696 124.32 12.9696C123.853 12.5696 123.233 12.3696 122.46 12.3696C121.727 12.3696 121.1 12.5763 120.58 12.9896C120.06 13.403 119.8 13.923 119.8 14.5496C119.8 15.1096 120.02 15.5696 120.46 15.9296C120.9 16.2763 121.567 16.603 122.46 16.9096L123.4 17.2296C124.613 17.6696 125.56 18.223 126.24 18.8896C126.92 19.543 127.26 20.4363 127.26 21.5696C127.26 22.4896 127.02 23.263 126.54 23.8896C126.073 24.5163 125.48 24.9763 124.76 25.2696C124.04 25.563 123.3 25.7096 122.54 25.7096ZM136.471 25.7096C135.084 25.7096 133.824 25.383 132.691 24.7296C131.558 24.0763 130.664 23.183 130.011 22.0496C129.371 20.903 129.051 19.6296 129.051 18.2296C129.051 16.8296 129.371 15.563 130.011 14.4296C130.664 13.283 131.558 12.383 132.691 11.7296C133.824 11.0763 135.084 10.7496 136.471 10.7496C137.538 10.7496 138.511 10.9563 139.391 11.3696C140.284 11.7696 141.058 12.343 141.711 13.0896L140.491 14.2696C139.944 13.6163 139.344 13.1363 138.691 12.8296C138.051 12.523 137.311 12.3696 136.471 12.3696C135.431 12.3696 134.478 12.6163 133.611 13.1096C132.744 13.5896 132.051 14.2763 131.531 15.1696C131.024 16.0496 130.771 17.0696 130.771 18.2296C130.771 19.3896 131.024 20.4163 131.531 21.3096C132.051 22.1896 132.744 22.8763 133.611 23.3696C134.478 23.8496 135.431 24.0896 136.471 24.0896C138.204 24.0896 139.678 23.3763 140.891 21.9496L142.131 23.1496C141.464 23.9363 140.644 24.563 139.671 25.0296C138.698 25.483 137.631 25.7096 136.471 25.7096ZM153.833 25.7096C152.806 25.7096 151.893 25.4763 151.093 25.0096C150.293 24.5296 149.673 23.8696 149.233 23.0296C148.793 22.1763 148.573 21.1963 148.573 20.0896V11.0696H150.273V20.1696C150.273 21.3296 150.58 22.2763 151.193 23.0096C151.806 23.7296 152.686 24.0896 153.833 24.0896C154.98 24.0896 155.86 23.7296 156.473 23.0096C157.1 22.2763 157.413 21.3296 157.413 20.1696V11.0696H159.093V20.0896C159.093 21.1963 158.88 22.1763 158.453 23.0296C158.04 23.883 157.433 24.543 156.633 25.0096C155.846 25.4763 154.913 25.7096 153.833 25.7096ZM161.54 15.1896H163.16V16.6896H163.24C163.52 16.183 163.967 15.7563 164.58 15.4096C165.193 15.0496 165.847 14.8696 166.54 14.8696C167.767 14.8696 168.7 15.2296 169.34 15.9496C169.993 16.6563 170.32 17.623 170.32 18.8496V25.3896H168.62V19.1096C168.62 18.163 168.393 17.4763 167.94 17.0496C167.487 16.623 166.867 16.4096 166.08 16.4096C165.533 16.4096 165.04 16.563 164.6 16.8696C164.173 17.1763 163.84 17.583 163.6 18.0896C163.36 18.583 163.24 19.103 163.24 19.6496V25.3896H161.54V15.1896ZM173.751 13.3096C173.418 13.3096 173.131 13.1896 172.891 12.9496C172.651 12.7096 172.531 12.423 172.531 12.0896C172.531 11.7563 172.651 11.4763 172.891 11.2496C173.131 11.0096 173.418 10.8896 173.751 10.8896C174.084 10.8896 174.371 11.0096 174.611 11.2496C174.851 11.4763 174.971 11.7563 174.971 12.0896C174.971 12.423 174.851 12.7096 174.611 12.9496C174.384 13.1896 174.098 13.3096 173.751 13.3096ZM172.911 15.1896H174.591V25.3896H172.911V15.1896ZM177.263 11.0696H178.963V25.3896H177.263V11.0696ZM186.084 25.7096C185.084 25.7096 184.184 25.4696 183.384 24.9896C182.584 24.5096 181.957 23.8563 181.504 23.0296C181.064 22.203 180.844 21.2896 180.844 20.2896C180.844 19.2896 181.064 18.3763 181.504 17.5496C181.957 16.723 182.584 16.0696 183.384 15.5896C184.184 15.1096 185.084 14.8696 186.084 14.8696C187.084 14.8696 187.984 15.1096 188.784 15.5896C189.584 16.0696 190.204 16.723 190.644 17.5496C191.097 18.3763 191.324 19.2896 191.324 20.2896C191.324 21.2896 191.097 22.203 190.644 23.0296C190.204 23.8563 189.584 24.5096 188.784 24.9896C187.984 25.4696 187.084 25.7096 186.084 25.7096ZM186.084 24.1696C186.71 24.1696 187.29 24.0163 187.824 23.7096C188.37 23.3896 188.804 22.9363 189.124 22.3496C189.457 21.763 189.624 21.0763 189.624 20.2896C189.624 19.503 189.457 18.8163 189.124 18.2296C188.804 17.643 188.37 17.1963 187.824 16.8896C187.29 16.5696 186.71 16.4096 186.084 16.4096C185.457 16.4096 184.87 16.5696 184.324 16.8896C183.777 17.1963 183.337 17.643 183.004 18.2296C182.684 18.8163 182.524 19.503 182.524 20.2896C182.524 21.0763 182.684 21.763 183.004 22.3496C183.337 22.9363 183.777 23.3896 184.324 23.7096C184.87 24.0163 185.457 24.1696 186.084 24.1696ZM193.102 15.1896H194.722V16.8296H194.802C195.002 16.2696 195.389 15.8096 195.962 15.4496C196.536 15.0763 197.136 14.8896 197.762 14.8896C198.229 14.8896 198.629 14.9563 198.962 15.0896V16.9296C198.536 16.7163 198.056 16.6096 197.522 16.6096C197.029 16.6096 196.576 16.7496 196.162 17.0296C195.749 17.3096 195.416 17.6896 195.162 18.1696C194.922 18.6363 194.802 19.143 194.802 19.6896V25.3896H193.102V15.1896ZM201.602 13.3096C201.269 13.3096 200.982 13.1896 200.742 12.9496C200.502 12.7096 200.382 12.423 200.382 12.0896C200.382 11.7563 200.502 11.4763 200.742 11.2496C200.982 11.0096 201.269 10.8896 201.602 10.8896C201.936 10.8896 202.222 11.0096 202.462 11.2496C202.702 11.4763 202.822 11.7563 202.822 12.0896C202.822 12.423 202.702 12.7096 202.462 12.9496C202.236 13.1896 201.949 13.3096 201.602 13.3096ZM200.762 15.1896H202.442V25.3896H200.762V15.1896ZM205.114 15.1896H206.734V16.6896H206.814C207.094 16.183 207.541 15.7563 208.154 15.4096C208.768 15.0496 209.421 14.8696 210.114 14.8696C211.341 14.8696 212.274 15.2296 212.914 15.9496C213.568 16.6563 213.894 17.623 213.894 18.8496V25.3896H212.194V19.1096C212.194 18.163 211.968 17.4763 211.514 17.0496C211.061 16.623 210.441 16.4096 209.654 16.4096C209.108 16.4096 208.614 16.563 208.174 16.8696C207.748 17.1763 207.414 17.583 207.174 18.0896C206.934 18.583 206.814 19.103 206.814 19.6496V25.3896H205.114V15.1896Z" fill="#1B1C1C"/>
</svg>
